<?xml version="1.0" encoding="UTF-8" standalone="no"?>
<!-- Created with Inkscape (http://www.inkscape.org/) -->

<svg
   xmlns:svg="http://www.w3.org/2000/svg"
   xmlns="http://www.w3.org/2000/svg"
   version="1.1"
   width="165"
   height="161"
   id="svg3223">
  <defs
     id="defs3225" />
  <g
     transform="translate(47.842946,-461.67273)"
     id="layer1">
    <path
       d="m 34.647681,561.34773 c 7.025,-13.95625 38.69375,-30.725 54.34375,-32.58125 -6.7125,-27.2 -23.475,-42.10625 -50.3,-45.45 l 20.6,-21.475 c 37.15,16.25625 55.774999,44.55625 57.437499,91.45625 -30.212499,2.1875 -75.393749,-0.8375 -72.418749,69.20625 l -19.30625,0 c 2.975,-70.04375 -42.20625,-67.01875 -72.41875,-69.20625 1.6625,-46.9 20.29375,-75.2 57.44375,-91.45625 l 20.59375,21.475 c -26.825,3.34375 -43.59375,18.25 -50.3,45.45 15.65,1.85625 47.3125,18.625 54.325,32.58125"
       id="path62"
       style="fill:#2657a4;fill-opacity:1;fill-rule:nonzero;stroke:none" />
  </g>
</svg>
